<svg width="1200" height="866" viewBox="0 0 1200 866" fill="none" xmlns="http://www.w3.org/2000/svg">
<path d="M485.839 523.924V523.924C485.839 459.655 507.463 397.254 547.231 346.766L559.451 331.253" stroke="#99D099" stroke-width="6.40104" stroke-dasharray="6.4 6.4"/>
<path d="M488.399 605.859L489.417 656.983C490.37 704.869 517.112 748.506 559.347 771.092V771.092C604.858 795.431 661.291 783.349 692.849 742.51L779.647 630.183" stroke="#99D099" stroke-width="6.40104" stroke-dasharray="6.4 6.4"/>
<path d="M546.009 570.653V570.653C642.789 570.653 731.142 515.604 773.794 428.73L808.451 358.139" stroke="#99D099" stroke-width="6.40104" stroke-dasharray="6.4 6.4"/>
<g filter="url(#filter0_d)">
<rect x="783.488" y="269.968" width="93.4552" height="93.4552" rx="3.54169" transform="rotate(-14.7841 783.488 269.968)" fill="white"/>
<rect x="779.576" y="267.69" width="99.8562" height="99.8562" rx="6.74221" transform="rotate(-14.7841 779.576 267.69)" stroke="#32A132" stroke-width="6.40104"/>
</g>
<rect x="793.82" y="275.985" width="76.5457" height="76.5457" rx="2.65626" transform="rotate(-14.7841 793.82 275.985)" fill="#66B867"/>
<rect x="803.868" y="284.734" width="61.9795" height="8.85421" rx="4.42711" transform="rotate(-14.7841 803.868 284.734)" fill="#E6F2E6"/>
<rect x="807.709" y="299.289" width="61.9795" height="8.85421" rx="4.42711" transform="rotate(-14.7841 807.709 299.289)" fill="#E6F2E6"/>
<rect x="811.55" y="313.841" width="61.9795" height="8.85421" rx="4.42711" transform="rotate(-14.7841 811.55 313.841)" fill="#E6F2E6"/>
<rect x="815.391" y="328.396" width="61.9795" height="8.85421" rx="4.42711" transform="rotate(-14.7841 815.391 328.396)" fill="#E6F2E6"/>
<g filter="url(#filter1_d)">
<circle cx="1003.86" cy="171.313" r="135.062" transform="rotate(13.7611 1003.86 171.313)" fill="white"/>
</g>
<circle cx="1003.86" cy="171.312" r="106.461" transform="rotate(13.7611 1003.86 171.312)" fill="#66B867"/>
<mask id="mask0" mask-type="alpha" maskUnits="userSpaceOnUse" x="820" y="64" width="291" height="294">
<path d="M1107.26 196.638C1093.28 253.747 1035.64 288.705 978.534 274.719C971.938 273.103 908.223 360.03 902.26 357.319C882.807 348.473 833.113 332.744 822.26 315.32C807.63 291.833 893.351 174.988 900.453 145.99C914.439 88.8806 972.073 53.9228 1029.18 67.9091C1086.29 81.8953 1121.25 139.529 1107.26 196.638Z" fill="#66B867"/>
</mask>
<g mask="url(#mask0)">
<path d="M820.437 302.322C821.808 305.722 840.917 305.614 875.625 302.377L878.125 310.502L900.501 296.334L939.249 251.394L925.288 222.993L895.643 259.428C883.341 252.074 871.154 248.103 859.083 247.514C840.977 246.63 831.945 245.37 830.733 249.171C829.521 252.972 855.719 258.968 852.014 259.183C841.887 259.769 818.746 258.437 817.51 263.69C816.686 267.191 827.825 270.441 850.925 273.44C824.404 275.186 811.377 277.983 811.845 281.831C812.548 287.603 845.631 287.343 849.188 288.861C845.341 291.946 817.703 295.544 820.437 302.322Z" fill="#F4CDB7"/>
<path fill-rule="evenodd" clip-rule="evenodd" d="M1165.59 337.979C1141.69 300.026 1104.75 212.868 1083.18 148.466C1062.26 185.429 1014.34 188.009 937.405 266.852C927.442 277.063 915.962 269.36 902.965 243.745C990.816 118.699 1086.47 -29.3078 1114.54 -11.6489C1132.31 -0.475223 1169.87 61.4006 1202.45 127.395C1215.77 84.1897 1228.84 45.2358 1234.43 14.6803C1242.37 -28.6272 1223.91 -42.4098 1223.45 -63.0921C1223.1 -78.6494 1318.27 -132.759 1394.69 -130.387C1471.11 -128.015 1512.61 -100.943 1536.36 -47.7494C1544.58 -29.3589 1520.09 1.38263 1494.94 33.0843C1516.84 43.2416 1532.61 53.6014 1535.95 63.2552C1547.44 96.423 1488.24 302.024 1446.23 368.758C1440.91 385.631 1431.51 397.483 1409.28 403.753C1399.03 406.643 1376.75 411.728 1342.45 419.005C1341.6 421.607 1336.76 436.355 1332.61 433.569C1316.16 422.54 1235.96 405.792 1234.32 403.768C1232.68 401.744 1236.88 380.119 1235.23 386.703C1192.6 369.509 1169.39 353.267 1165.59 337.979Z" fill="#A568DA"/>
<path d="M948.36 234.758C939.327 226.904 934.903 219.54 934.828 212.788C934.809 211.156 933.551 209.911 932.018 210.007C930.484 210.104 929.256 211.504 929.274 213.136C929.372 221.897 934.61 230.616 944.73 239.415C945.891 240.424 947.644 240.2 948.647 238.914C949.649 237.628 949.521 235.767 948.36 234.758Z" fill="#6B438D"/>
</g>
<g filter="url(#filter2_d)">
<circle cx="203.387" cy="618.493" r="184.184" fill="white"/>
</g>
<circle cx="203.387" cy="618.496" r="145.18" fill="#B786E1"/>
<g filter="url(#filter3_d)">
<rect x="427.776" y="512.404" width="117.913" height="117.913" rx="4.46858" fill="white"/>
<rect x="424.576" y="509.204" width="124.314" height="124.314" rx="7.6691" stroke="#32A132" stroke-width="6.40104"/>
</g>
<rect x="438.444" y="523.07" width="96.5784" height="96.5784" rx="3.35143" fill="#66B867"/>
<rect x="447.885" y="536.98" width="78.2001" height="11.1714" rx="5.58572" fill="#E6F2E6"/>
<rect x="447.885" y="555.973" width="78.2001" height="11.1714" rx="5.58572" fill="#E6F2E6"/>
<rect x="447.885" y="574.964" width="78.2001" height="11.1714" rx="5.58572" fill="#E6F2E6"/>
<rect x="447.885" y="593.954" width="78.2001" height="11.1714" rx="5.58572" fill="#E6F2E6"/>
<mask id="mask1" mask-type="alpha" maskUnits="userSpaceOnUse" x="58" y="439" width="488" height="329">
<path d="M545.752 601.162C517.601 706.853 425.972 759.729 355.61 766.927C331.436 769.4 308.113 740.286 292.77 733.341C286.27 737.674 280.184 741.805 278.144 743.092C250.517 759.343 230.081 763.677 203.387 763.677C123.206 763.677 58.2069 698.677 58.2069 618.497C58.2069 538.316 123.206 439.73 203.387 439.73C283.568 439.73 545.752 520.981 545.752 601.162Z" fill="#B786E1"/>
</mask>
<g mask="url(#mask1)">
<path fill-rule="evenodd" clip-rule="evenodd" d="M401.198 563.78C406.792 550.979 410.688 543.933 412.884 542.642C415.081 541.35 415.152 546.058 413.097 556.764C429.848 549.805 438.843 547.027 440.081 548.431C442.549 551.229 429.377 557.256 427.965 559.325C429.985 559.492 446.413 554.203 447.706 556.84C448.568 558.597 442.539 561.962 429.62 566.934C441.611 564.754 447.687 564.561 447.849 566.356C448.092 569.048 436.353 572.028 431.407 573.888C429.597 574.568 443.62 573.331 443.638 575.329C443.655 577.326 438.953 578.137 429.794 580.543C423.688 582.148 416.972 582.161 409.645 580.582L400.838 602.547L389.247 591.213L401.198 563.78Z" fill="#8C4014"/>
<path fill-rule="evenodd" clip-rule="evenodd" d="M262.412 585.354C280.515 599.68 313.143 635.384 334.402 662.661C338.778 641.807 362.218 633.097 387.64 583.571C390.933 577.157 397.907 579.03 408.562 589.189C385.251 662.404 361.807 747.763 344.945 743.744C334.275 741.2 305.464 717.624 278.462 691.309C278.889 713.946 278.747 734.521 280.953 749.934C284.079 771.779 295.521 775.455 299.128 785.225C301.841 792.573 263.299 833.178 224.865 843.98C186.43 854.783 161.346 848.381 140.83 826.778C133.737 819.31 140.906 800.859 148.246 781.849C135.685 780.435 126.144 777.967 122.902 773.895C111.763 759.908 107.649 652.835 117.663 614.523C117.555 605.664 120.299 598.557 130.343 592.103C134.974 589.127 145.234 583.23 161.122 574.412C161.122 573.041 161.122 565.268 163.646 565.945C173.635 568.625 216.303 564.072 217.45 564.779C218.596 565.486 220.039 576.431 219.785 573.041C243.815 574.568 258.024 578.672 262.412 585.354Z" fill="#007ACC"/>
<path d="M153.348 718.275C149.421 711.046 144.936 703.579 139.894 695.871C136.798 691.138 133.595 683.025 130.327 671.572C130.102 670.782 129.299 670.33 128.535 670.563C127.771 670.797 127.334 671.627 127.559 672.418C130.904 684.14 134.205 692.501 137.504 697.544C142.502 705.185 146.945 712.583 150.832 719.738C160.191 736.964 156.642 762.041 139.958 794.999L139.873 795.205C134.799 810.41 134.799 821.863 140.061 829.504C145.316 837.135 164.338 843.815 197.51 849.961C198.295 850.107 199.045 849.567 199.185 848.755C199.326 847.943 198.804 847.168 198.019 847.022C165.694 841.033 147.031 834.479 142.412 827.772C137.812 821.093 137.801 810.616 142.566 796.284C159.612 762.572 163.282 736.559 153.348 718.275Z" fill="#00497A"/>
<path d="M387.429 600.552C393.209 602.879 396.615 605.692 397.755 608.893C398.031 609.667 398.861 610.062 399.609 609.777C400.356 609.492 400.739 608.634 400.463 607.86C398.984 603.707 394.951 600.376 388.475 597.769C387.733 597.471 386.896 597.851 386.607 598.619C386.318 599.388 386.686 600.253 387.429 600.552Z" fill="#00497A"/>
<path d="M164.036 577.593C175.439 583.438 188.666 583.763 203.643 578.619C204.399 578.359 204.809 577.514 204.558 576.732C204.306 575.949 203.49 575.526 202.733 575.785C188.439 580.695 175.991 580.389 165.317 574.918C164.603 574.552 163.737 574.854 163.384 575.593C163.03 576.331 163.322 577.227 164.036 577.593Z" fill="#0E143F"/>
<path d="M278.581 688.669L266.012 675.633C265.449 675.049 264.536 675.048 263.971 675.63C263.407 676.212 263.406 677.158 263.969 677.741L276.538 690.778C277.101 691.361 278.014 691.363 278.578 690.78C279.143 690.198 279.144 689.253 278.581 688.669Z" fill="#00497A"/>
<path fill-rule="evenodd" clip-rule="evenodd" d="M216.718 555.478C215.755 566.015 215.688 572.129 216.519 573.819C218.249 577.341 225.668 590.305 216.23 601.235C206.792 612.165 170.876 618.453 159.946 600.852C164.043 588.017 170.203 567.006 178.424 537.82C170.076 532.664 163.603 527.069 162.811 521.894C161.237 511.613 158.838 502.176 155.614 493.58C155.614 472.542 173.058 455.487 194.576 455.487C216.094 455.487 233.538 472.542 233.538 493.58V517.939C233.538 538.977 223.082 556.768 220.525 556.616C220.164 556.594 218.8 556.193 216.718 555.478Z" fill="#8C4014"/>
<path d="M217.191 564.248C217.25 555.023 217.136 549.646 216.829 547.881C216.801 547.723 216.774 547.597 216.737 547.478C216.696 547.343 216.696 547.343 216.547 547.067C216.153 546.478 216.153 546.478 214.564 546.613C213.96 547.236 213.96 547.236 213.917 547.471C213.875 547.64 213.875 547.64 213.859 547.751C213.843 547.864 213.833 547.992 213.826 548.148C213.803 548.657 213.806 549.584 213.836 550.959C213.893 553.656 214.05 558.101 214.307 564.299C214.384 566.176 217.18 566.127 217.191 564.248Z" fill="#F97A80"/>
<path fill-rule="evenodd" clip-rule="evenodd" d="M117.725 612.917C93.3282 623.148 90.4258 593.821 103.286 587.434C89.4687 587.434 81.7472 568.785 108.65 557.378C104.99 550.265 105.037 537.872 124.556 533.81C119.993 530.607 115.024 517.255 140.572 515.685C146.248 512.98 141.164 495.454 146.703 478.272C151.173 464.407 164.586 450.163 172.56 451.127C173.322 450.536 174.167 450.009 175.094 449.545C175.594 449.295 176.098 449.063 176.608 448.849C193.121 430.787 214.175 449.776 233.238 449.776C250.554 449.776 245.675 468.178 243.765 470.696C247.689 476.146 244.257 484.357 233.47 495.33C233.152 493.441 232.993 489.863 232.993 484.595C231.543 484.731 229.923 484.917 228.197 485.051C223.164 492.088 228.715 513.579 225.771 514.18C222.349 514.878 222.37 500.196 211.143 505.043C199.916 509.891 205.852 530.764 216.111 537.102C216.262 537.195 216.392 537.287 216.502 537.377C225.488 541.302 222.4 549.304 219.515 551.583C235.086 555.229 235.123 566.356 232.203 572.743C253.664 582.985 247.504 599.729 236.483 599.729C241.61 611.777 232.203 630.951 219.515 616.077C218.934 628.555 206.37 636.514 195.315 626.202C194.787 625.709 184.407 645.872 170.015 630.114C158.823 655.118 140.743 634.222 139.87 630.787C118.759 639.025 111.377 633.069 117.725 612.917Z" fill="#171717"/>
<path d="M221.25 513.697C216.501 509.113 212.271 509.693 209.91 515.419C209.607 516.155 209.958 516.999 210.694 517.303C211.431 517.606 212.275 517.255 212.579 516.519C214.12 512.779 215.891 512.536 219.245 515.774C219.818 516.327 220.732 516.311 221.285 515.738C221.839 515.164 221.823 514.251 221.25 513.697Z" fill="#552001"/>
</g>
<g filter="url(#filter4_d)">
<rect x="584.466" y="230.756" width="93.4552" height="93.4552" rx="3.54169" transform="rotate(38.5965 584.466 230.756)" fill="white"/>
<rect x="583.961" y="226.258" width="99.8562" height="99.8562" rx="6.74221" transform="rotate(38.5965 583.961 226.258)" stroke="#32A132" stroke-width="6.40104"/>
</g>
<rect x="585.799" y="242.639" width="76.5457" height="76.5457" rx="2.65626" transform="rotate(38.5965 585.799 242.639)" fill="#66B867"/>
<rect x="584.77" y="255.924" width="61.9795" height="8.85421" rx="4.42711" transform="rotate(38.5965 584.77 255.924)" fill="#E6F2E6"/>
<rect x="575.38" y="267.688" width="61.9795" height="8.85421" rx="4.42711" transform="rotate(38.5965 575.38 267.688)" fill="#E6F2E6"/>
<rect x="565.99" y="279.453" width="61.9795" height="8.85421" rx="4.42711" transform="rotate(38.5965 565.99 279.453)" fill="#E6F2E6"/>
<rect x="556.6" y="291.217" width="61.9795" height="8.85421" rx="4.42711" transform="rotate(38.5965 556.6 291.217)" fill="#E6F2E6"/>
<g filter="url(#filter5_d)">
<circle cx="461.771" cy="148.535" r="135.062" transform="rotate(-87.6286 461.771 148.535)" fill="white"/>
</g>
<circle cx="461.771" cy="148.537" r="106.461" transform="rotate(-87.6286 461.771 148.537)" fill="#66AFE0"/>
<mask id="mask2" mask-type="alpha" maskUnits="userSpaceOnUse" x="347" y="37" width="313" height="314">
<path d="M466.176 42.1661C524.922 44.5989 570.573 94.1943 568.14 152.941C566.169 200.544 716.864 331.435 610.57 345.612C550.031 368.731 468.508 255.366 457.366 254.905C398.62 252.472 352.969 202.877 355.402 144.131C357.834 85.3844 407.43 39.7333 466.176 42.1661Z" fill="#66AFE0"/>
</mask>
<g mask="url(#mask2)">
<path d="M581.204 295.246C578.924 298.117 561.603 293.074 529.242 280.117L522.5 275.502L517.5 281.752L506.134 266.776L481.737 212.685L503.187 189.416L521.268 232.768C535.152 229.209 547.965 228.86 559.707 231.722C577.319 236.014 586.337 237.37 586.42 241.359C586.503 245.347 559.68 243.66 563.172 244.917C572.716 248.354 595.283 253.647 594.977 259.034C594.773 262.625 583.171 262.58 560.169 258.897C585.104 268.1 596.801 274.48 595.259 278.037C592.947 283.372 561.299 273.731 557.457 274.177C560.27 278.227 585.75 289.523 581.204 295.246Z" fill="#DE8A5A"/>
<path fill-rule="evenodd" clip-rule="evenodd" d="M240.124 231.453C273.822 201.848 333.983 128.762 372.945 73.1318C382.51 114.512 427.731 130.591 479.117 228.03C485.772 240.649 498.966 236.522 518.7 215.65C469.961 70.8099 420.258 -98.2621 388.326 -89.2991C368.122 -83.6278 314.535 -34.9619 264.562 19.0689C264.055 -26.1401 262.584 -67.2005 265.893 -98.0874C270.583 -141.865 292.194 -149.84 298.505 -169.542C303.252 -184.361 227.361 -263.261 153.412 -282.68C79.4633 -302.099 31.9846 -287.921 -5.89188 -243.659C-18.9869 -228.357 -4.23383 -191.929 10.8766 -154.393C-13.0035 -150.87 -31.0594 -145.411 -37.0068 -137.104C-57.4403 -108.563 -59.041 105.386 -37.7042 181.299C-37.3925 198.989 -31.7438 213.022 -12.2068 225.345C-3.19901 231.026 16.7167 242.225 47.5403 258.94C47.6202 261.677 48.0737 277.192 52.8479 275.699C71.7464 269.792 153.407 276.502 155.553 275.027C157.699 273.551 159.813 251.625 159.527 258.406C205.278 254.019 232.144 245.035 240.124 231.453Z" fill="#32A132"/>
<path d="M477.723 194.148C488.614 189.182 494.947 183.376 496.936 176.923C497.417 175.364 498.976 174.527 500.42 175.055C501.863 175.582 502.643 177.274 502.162 178.833C499.581 187.206 492.084 194.079 479.882 199.643C478.483 200.282 476.865 199.569 476.269 198.051C475.673 196.534 476.324 194.786 477.723 194.148Z" fill="#005200"/>
</g>
<g filter="url(#filter6_d)">
<rect x="790.926" y="525.202" width="93.4552" height="93.4552" rx="3.54169" transform="rotate(33.9896 790.926 525.202)" fill="white"/>
<rect x="790.062" y="520.759" width="99.8562" height="99.8562" rx="6.74221" transform="rotate(33.9896 790.062 520.759)" stroke="#32A132" stroke-width="6.40104"/>
</g>
<rect x="793.21" y="536.937" width="76.5457" height="76.5457" rx="2.65626" transform="rotate(33.9896 793.21 536.937)" fill="#66B867"/>
<rect x="793.251" y="550.261" width="61.9795" height="8.85421" rx="4.42711" transform="rotate(33.9896 793.251 550.261)" fill="#E6F2E6"/>
<rect x="784.836" y="562.741" width="61.9795" height="8.85421" rx="4.42711" transform="rotate(33.9896 784.836 562.741)" fill="#E6F2E6"/>
<rect x="776.421" y="575.22" width="61.9795" height="8.85421" rx="4.42711" transform="rotate(33.9896 776.421 575.22)" fill="#E6F2E6"/>
<rect x="768.006" y="587.702" width="61.9795" height="8.85421" rx="4.42711" transform="rotate(33.9896 768.006 587.702)" fill="#E6F2E6"/>
<g filter="url(#filter7_d)">
<circle r="135.062" transform="matrix(0.948613 -0.316439 -0.316439 -0.948613 984.066 676.044)" fill="white"/>
</g>
<circle r="106.461" transform="matrix(0.948613 -0.316439 -0.316439 -0.948613 984.065 676.043)" fill="#66AFE0"/>
<mask id="mask3" mask-type="alpha" maskUnits="userSpaceOnUse" x="738" y="458" width="381" height="381">
<path d="M1085.06 642.355C1066.45 586.58 1006.15 556.448 950.377 575.053C905.181 590.13 737.679 481.574 753.491 587.638C748.04 652.21 879.547 699.153 883.076 709.732C901.681 765.507 961.979 795.639 1017.75 777.033C1073.53 758.428 1103.66 698.13 1085.06 642.355Z" fill="#66AFE0"/>
</mask>
<g mask="url(#mask3)">
<path d="M780.597 576.589C778.47 579.575 788.112 594.822 809.523 622.33L812.501 627.991L806.876 635.491L828.742 640.84L887.473 649.304L903.893 622.249L857.229 616.88C856.804 602.553 853.591 590.145 847.59 579.655C838.588 563.92 834.788 555.63 830.932 556.655C827.077 557.68 836.126 582.986 833.951 579.979C828.005 571.76 816.67 551.541 811.579 553.327C808.184 554.517 811.441 565.654 821.349 586.736C805.601 565.324 796.232 555.852 793.241 558.318C788.754 562.017 806.783 589.758 807.418 593.573C802.747 591.991 784.838 570.636 780.597 576.589Z" fill="#A76F4F"/>
<path fill-rule="evenodd" clip-rule="evenodd" d="M936.346 886.666C955.462 846.088 1009.03 768.041 1051.7 715.198C1009.28 717.465 981.312 678.465 873.454 656.071C859.486 653.171 859.797 639.35 874.388 614.608C1027.06 621.332 1203.29 622.272 1203.52 655.437C1203.66 676.423 1171.74 741.39 1133.66 804.371C1177.24 792.339 1217.1 782.382 1245.86 770.649C1286.63 754.02 1288.31 731.045 1305.49 719.525C1318.42 710.86 1415.25 761.935 1454.39 827.615C1493.52 893.294 1493.05 942.842 1461 991.494C1449.93 1008.31 1410.84 1004.23 1370.59 1000.1C1373.81 1024.02 1373.57 1042.88 1367.23 1050.9C1345.47 1078.44 1140.33 1139.22 1061.47 1139.74C1044.39 1144.34 1029.34 1142.8 1012.09 1127.44C1004.14 1120.36 987.861 1104.32 963.264 1079.33C960.612 1080.01 945.578 1083.87 945.69 1078.87C946.133 1059.08 917.072 982.466 917.896 979.996C918.719 977.525 939.202 969.422 932.766 971.575C924.312 926.399 925.506 898.095 936.346 886.666Z" fill="#99D099"/>
<path d="M906.398 648.027C908.154 636.187 911.978 628.494 917.628 624.796C918.994 623.902 919.366 622.172 918.459 620.931C917.553 619.691 915.711 619.409 914.346 620.303C907.015 625.102 902.487 634.21 900.519 647.475C900.294 648.996 901.427 650.353 903.05 650.506C904.673 650.658 906.172 649.549 906.398 648.027Z" fill="#006E00"/>
<path d="M1128.49 805.463L1109.25 835.171C1108.38 836.501 1108.82 838.191 1110.21 838.945C1111.6 839.698 1113.43 839.231 1114.29 837.901L1133.54 808.193C1134.4 806.862 1133.97 805.173 1132.58 804.419C1131.18 803.665 1129.36 804.132 1128.49 805.463Z" fill="#0E143F"/>
</g>
<defs>
<filter id="filter0_d" x="767.712" y="234.408" width="145.759" height="145.759" filterUnits="userSpaceOnUse" color-interpolation-filters="sRGB">
<feFlood flood-opacity="0" result="BackgroundImageFix"/>
<feColorMatrix in="SourceAlpha" type="matrix" values="0 0 0 0 0 0 0 0 0 0 0 0 0 0 0 0 0 0 127 0"/>
<feOffset dy="4.06327"/>
<feGaussianBlur stdDeviation="5.07909"/>
<feColorMatrix type="matrix" values="0 0 0 0 0 0 0 0 0 0 0 0 0 0 0 0 0 0 0.15 0"/>
<feBlend mode="normal" in2="BackgroundImageFix" result="effect1_dropShadow"/>
<feBlend mode="normal" in="SourceGraphic" in2="effect1_dropShadow" result="shape"/>
</filter>
<filter id="filter1_d" x="827.039" y="0.0551796" width="353.638" height="353.638" filterUnits="userSpaceOnUse" color-interpolation-filters="sRGB">
<feFlood flood-opacity="0" result="BackgroundImageFix"/>
<feColorMatrix in="SourceAlpha" type="matrix" values="0 0 0 0 0 0 0 0 0 0 0 0 0 0 0 0 0 0 127 0"/>
<feOffset dy="5.56138"/>
<feGaussianBlur stdDeviation="6.7531"/>
<feColorMatrix type="matrix" values="0 0 0 0 0 0 0 0 0 0 0 0 0 0 0 0 0 0 0.15 0"/>
<feBlend mode="normal" in2="BackgroundImageFix" result="effect1_dropShadow"/>
<feBlend mode="normal" in="SourceGraphic" in2="effect1_dropShadow" result="shape"/>
</filter>
<filter id="filter2_d" x="0.784771" y="423.475" width="405.205" height="405.205" filterUnits="userSpaceOnUse" color-interpolation-filters="sRGB">
<feFlood flood-opacity="0" result="BackgroundImageFix"/>
<feColorMatrix in="SourceAlpha" type="matrix" values="0 0 0 0 0 0 0 0 0 0 0 0 0 0 0 0 0 0 127 0"/>
<feOffset dy="7.58404"/>
<feGaussianBlur stdDeviation="9.20919"/>
<feColorMatrix type="matrix" values="0 0 0 0 0 0 0 0 0 0 0 0 0 0 0 0 0 0 0.15 0"/>
<feBlend mode="normal" in2="BackgroundImageFix" result="effect1_dropShadow"/>
<feBlend mode="normal" in="SourceGraphic" in2="effect1_dropShadow" result="shape"/>
</filter>
<filter id="filter3_d" x="408.559" y="498.313" width="156.349" height="156.349" filterUnits="userSpaceOnUse" color-interpolation-filters="sRGB">
<feFlood flood-opacity="0" result="BackgroundImageFix"/>
<feColorMatrix in="SourceAlpha" type="matrix" values="0 0 0 0 0 0 0 0 0 0 0 0 0 0 0 0 0 0 127 0"/>
<feOffset dy="5.12667"/>
<feGaussianBlur stdDeviation="6.40833"/>
<feColorMatrix type="matrix" values="0 0 0 0 0 0 0 0 0 0 0 0 0 0 0 0 0 0 0.15 0"/>
<feBlend mode="normal" in2="BackgroundImageFix" result="effect1_dropShadow"/>
<feBlend mode="normal" in="SourceGraphic" in2="effect1_dropShadow" result="shape"/>
</filter>
<filter id="filter4_d" x="511.042" y="219.696" width="161.589" height="161.589" filterUnits="userSpaceOnUse" color-interpolation-filters="sRGB">
<feFlood flood-opacity="0" result="BackgroundImageFix"/>
<feColorMatrix in="SourceAlpha" type="matrix" values="0 0 0 0 0 0 0 0 0 0 0 0 0 0 0 0 0 0 127 0"/>
<feOffset dy="4.06327"/>
<feGaussianBlur stdDeviation="5.07909"/>
<feColorMatrix type="matrix" values="0 0 0 0 0 0 0 0 0 0 0 0 0 0 0 0 0 0 0.15 0"/>
<feBlend mode="normal" in2="BackgroundImageFix" result="effect1_dropShadow"/>
<feBlend mode="normal" in="SourceGraphic" in2="effect1_dropShadow" result="shape"/>
</filter>
<filter id="filter5_d" x="307.73" y="0.0557899" width="308.082" height="308.082" filterUnits="userSpaceOnUse" color-interpolation-filters="sRGB">
<feFlood flood-opacity="0" result="BackgroundImageFix"/>
<feColorMatrix in="SourceAlpha" type="matrix" values="0 0 0 0 0 0 0 0 0 0 0 0 0 0 0 0 0 0 127 0"/>
<feOffset dy="5.56138"/>
<feGaussianBlur stdDeviation="6.7531"/>
<feColorMatrix type="matrix" values="0 0 0 0 0 0 0 0 0 0 0 0 0 0 0 0 0 0 0.15 0"/>
<feBlend mode="normal" in2="BackgroundImageFix" result="effect1_dropShadow"/>
<feBlend mode="normal" in="SourceGraphic" in2="effect1_dropShadow" result="shape"/>
</filter>
<filter id="filter6_d" x="723.495" y="514.08" width="160.104" height="160.104" filterUnits="userSpaceOnUse" color-interpolation-filters="sRGB">
<feFlood flood-opacity="0" result="BackgroundImageFix"/>
<feColorMatrix in="SourceAlpha" type="matrix" values="0 0 0 0 0 0 0 0 0 0 0 0 0 0 0 0 0 0 127 0"/>
<feOffset dy="4.06327"/>
<feGaussianBlur stdDeviation="5.07909"/>
<feColorMatrix type="matrix" values="0 0 0 0 0 0 0 0 0 0 0 0 0 0 0 0 0 0 0.15 0"/>
<feBlend mode="normal" in2="BackgroundImageFix" result="effect1_dropShadow"/>
<feBlend mode="normal" in="SourceGraphic" in2="effect1_dropShadow" result="shape"/>
</filter>
<filter id="filter7_d" x="799.699" y="497.239" width="368.733" height="368.733" filterUnits="userSpaceOnUse" color-interpolation-filters="sRGB">
<feFlood flood-opacity="0" result="BackgroundImageFix"/>
<feColorMatrix in="SourceAlpha" type="matrix" values="0 0 0 0 0 0 0 0 0 0 0 0 0 0 0 0 0 0 127 0"/>
<feOffset dy="5.56138"/>
<feGaussianBlur stdDeviation="6.7531"/>
<feColorMatrix type="matrix" values="0 0 0 0 0 0 0 0 0 0 0 0 0 0 0 0 0 0 0.15 0"/>
<feBlend mode="normal" in2="BackgroundImageFix" result="effect1_dropShadow"/>
<feBlend mode="normal" in="SourceGraphic" in2="effect1_dropShadow" result="shape"/>
</filter>
</defs>
</svg>
